<mxfile host="Electron" modified="2024-01-28T16:08:30.920Z" agent="Mozilla/5.0 (X11; Linux x86_64) AppleWebKit/537.36 (KHTML, like Gecko) draw.io/23.0.2 Chrome/120.0.6099.109 Electron/28.1.0 Safari/537.36" etag="GNGNsS2FpIDRI8DXRbZi" version="23.0.2" type="device">
  <diagram name="Page-1" id="QjPPTQO5xs1gNr4-UguA">
    <mxGraphModel dx="1364" dy="1943" grid="1" gridSize="10" guides="1" tooltips="1" connect="1" arrows="1" fold="1" page="1" pageScale="1" pageWidth="850" pageHeight="1100" math="0" shadow="0">
      <root>
        <mxCell id="0" />
        <mxCell id="1" parent="0" />
        <mxCell id="8YJrBbGB5DTJLXK0ga0t-54" value="" style="rounded=0;whiteSpace=wrap;html=1;dashed=1;" vertex="1" parent="1">
          <mxGeometry x="720" y="280" width="580" height="90" as="geometry" />
        </mxCell>
        <mxCell id="8YJrBbGB5DTJLXK0ga0t-52" value="" style="rounded=0;whiteSpace=wrap;html=1;dashed=1;" vertex="1" parent="1">
          <mxGeometry x="570" y="70" width="730" height="210" as="geometry" />
        </mxCell>
        <mxCell id="8YJrBbGB5DTJLXK0ga0t-50" value="" style="rounded=0;whiteSpace=wrap;html=1;dashed=1;" vertex="1" parent="1">
          <mxGeometry x="260" y="290" width="420" height="180" as="geometry" />
        </mxCell>
        <mxCell id="8YJrBbGB5DTJLXK0ga0t-48" value="" style="rounded=0;whiteSpace=wrap;html=1;dashed=1;" vertex="1" parent="1">
          <mxGeometry x="730" y="380" width="580" height="110" as="geometry" />
        </mxCell>
        <mxCell id="8YJrBbGB5DTJLXK0ga0t-49" value="input" style="text;html=1;align=center;verticalAlign=middle;resizable=0;points=[];autosize=1;strokeColor=none;fillColor=none;fontStyle=1" vertex="1" parent="1">
          <mxGeometry x="740" y="390" width="50" height="30" as="geometry" />
        </mxCell>
        <mxCell id="8YJrBbGB5DTJLXK0ga0t-46" value="" style="rounded=0;whiteSpace=wrap;html=1;dashed=1;" vertex="1" parent="1">
          <mxGeometry x="70" y="230" width="180" height="220" as="geometry" />
        </mxCell>
        <mxCell id="8YJrBbGB5DTJLXK0ga0t-47" value="input" style="text;html=1;align=center;verticalAlign=middle;resizable=0;points=[];autosize=1;strokeColor=none;fillColor=none;fontStyle=1" vertex="1" parent="1">
          <mxGeometry x="95" y="240" width="50" height="30" as="geometry" />
        </mxCell>
        <mxCell id="8YJrBbGB5DTJLXK0ga0t-40" value="" style="rounded=0;whiteSpace=wrap;html=1;dashed=1;fillColor=none;" vertex="1" parent="1">
          <mxGeometry x="530" y="-60" width="780" height="100" as="geometry" />
        </mxCell>
        <mxCell id="8YJrBbGB5DTJLXK0ga0t-1" value="RESNET-18 (without last layer)" style="rounded=0;whiteSpace=wrap;html=1;fillColor=#fa6800;fontColor=#000000;strokeColor=#C73500;" vertex="1" parent="1">
          <mxGeometry x="270" y="330" width="210" height="60" as="geometry" />
        </mxCell>
        <mxCell id="8YJrBbGB5DTJLXK0ga0t-2" value="an input image" style="rounded=0;whiteSpace=wrap;html=1;fillColor=#a0522d;fontColor=#ffffff;strokeColor=#6D1F00;" vertex="1" parent="1">
          <mxGeometry x="100" y="330" width="130" height="60" as="geometry" />
        </mxCell>
        <mxCell id="8YJrBbGB5DTJLXK0ga0t-3" value="" style="endArrow=classic;html=1;rounded=0;exitX=1;exitY=0.5;exitDx=0;exitDy=0;entryX=0;entryY=0.5;entryDx=0;entryDy=0;" edge="1" parent="1" source="8YJrBbGB5DTJLXK0ga0t-2" target="8YJrBbGB5DTJLXK0ga0t-1">
          <mxGeometry width="50" height="50" relative="1" as="geometry">
            <mxPoint x="180" y="500" as="sourcePoint" />
            <mxPoint x="230" y="450" as="targetPoint" />
          </mxGeometry>
        </mxCell>
        <mxCell id="8YJrBbGB5DTJLXK0ga0t-4" value="Linear layer" style="rounded=0;whiteSpace=wrap;html=1;fillColor=#6d8764;fontColor=#ffffff;strokeColor=#3A5431;" vertex="1" parent="1">
          <mxGeometry x="530" y="330" width="100" height="60" as="geometry" />
        </mxCell>
        <mxCell id="8YJrBbGB5DTJLXK0ga0t-5" value="" style="endArrow=classic;html=1;rounded=0;exitX=1;exitY=0.5;exitDx=0;exitDy=0;entryX=0;entryY=0.5;entryDx=0;entryDy=0;" edge="1" parent="1" source="8YJrBbGB5DTJLXK0ga0t-1" target="8YJrBbGB5DTJLXK0ga0t-4">
          <mxGeometry width="50" height="50" relative="1" as="geometry">
            <mxPoint x="460" y="490" as="sourcePoint" />
            <mxPoint x="510" y="440" as="targetPoint" />
          </mxGeometry>
        </mxCell>
        <mxCell id="8YJrBbGB5DTJLXK0ga0t-6" value="" style="endArrow=classic;html=1;rounded=0;exitX=1;exitY=0.5;exitDx=0;exitDy=0;" edge="1" parent="1" source="8YJrBbGB5DTJLXK0ga0t-4">
          <mxGeometry width="50" height="50" relative="1" as="geometry">
            <mxPoint x="660" y="550" as="sourcePoint" />
            <mxPoint x="710" y="360" as="targetPoint" />
          </mxGeometry>
        </mxCell>
        <mxCell id="8YJrBbGB5DTJLXK0ga0t-7" value="embed_size" style="text;html=1;align=center;verticalAlign=middle;resizable=0;points=[];autosize=1;strokeColor=none;fillColor=none;" vertex="1" parent="1">
          <mxGeometry x="620" y="320" width="90" height="30" as="geometry" />
        </mxCell>
        <mxCell id="8YJrBbGB5DTJLXK0ga0t-8" value="" style="endArrow=classic;html=1;rounded=0;" edge="1" parent="1">
          <mxGeometry width="50" height="50" relative="1" as="geometry">
            <mxPoint x="710" y="360" as="sourcePoint" />
            <mxPoint x="710" y="270" as="targetPoint" />
          </mxGeometry>
        </mxCell>
        <mxCell id="8YJrBbGB5DTJLXK0ga0t-9" value="LSTM" style="rounded=0;whiteSpace=wrap;html=1;fillColor=#6a00ff;fontColor=#ffffff;strokeColor=#3700CC;" vertex="1" parent="1">
          <mxGeometry x="660" y="210" width="100" height="60" as="geometry" />
        </mxCell>
        <mxCell id="8YJrBbGB5DTJLXK0ga0t-10" value="Linear layer" style="rounded=0;whiteSpace=wrap;html=1;fillColor=#60a917;fontColor=#ffffff;strokeColor=#2D7600;" vertex="1" parent="1">
          <mxGeometry x="660" y="90" width="100" height="60" as="geometry" />
        </mxCell>
        <mxCell id="8YJrBbGB5DTJLXK0ga0t-11" value="" style="endArrow=classic;html=1;rounded=0;exitX=0.5;exitY=0;exitDx=0;exitDy=0;entryX=0.5;entryY=1;entryDx=0;entryDy=0;" edge="1" parent="1" source="8YJrBbGB5DTJLXK0ga0t-9" target="8YJrBbGB5DTJLXK0ga0t-10">
          <mxGeometry width="50" height="50" relative="1" as="geometry">
            <mxPoint x="760" y="370" as="sourcePoint" />
            <mxPoint x="810" y="320" as="targetPoint" />
          </mxGeometry>
        </mxCell>
        <mxCell id="8YJrBbGB5DTJLXK0ga0t-12" value="hidden_size" style="text;html=1;align=center;verticalAlign=middle;resizable=0;points=[];autosize=1;strokeColor=none;fillColor=none;" vertex="1" parent="1">
          <mxGeometry x="700" y="165" width="90" height="30" as="geometry" />
        </mxCell>
        <mxCell id="8YJrBbGB5DTJLXK0ga0t-13" value="embed_size" style="text;html=1;align=center;verticalAlign=middle;resizable=0;points=[];autosize=1;strokeColor=none;fillColor=none;" vertex="1" parent="1">
          <mxGeometry x="620" y="40" width="90" height="30" as="geometry" />
        </mxCell>
        <mxCell id="8YJrBbGB5DTJLXK0ga0t-14" value="" style="endArrow=classic;html=1;rounded=0;exitX=0.5;exitY=0;exitDx=0;exitDy=0;entryX=0.5;entryY=1;entryDx=0;entryDy=0;" edge="1" parent="1" source="8YJrBbGB5DTJLXK0ga0t-10" target="8YJrBbGB5DTJLXK0ga0t-15">
          <mxGeometry width="50" height="50" relative="1" as="geometry">
            <mxPoint x="709.5" y="50" as="sourcePoint" />
            <mxPoint x="710" y="40" as="targetPoint" />
          </mxGeometry>
        </mxCell>
        <mxCell id="8YJrBbGB5DTJLXK0ga0t-15" value="&amp;lt;start&amp;gt; (predicted word)" style="rounded=0;whiteSpace=wrap;html=1;fillColor=#1ba1e2;fontColor=#ffffff;strokeColor=#006EAF;" vertex="1" parent="1">
          <mxGeometry x="660" y="-10" width="100" height="40" as="geometry" />
        </mxCell>
        <mxCell id="8YJrBbGB5DTJLXK0ga0t-16" value="" style="endArrow=classic;html=1;rounded=0;exitX=0.5;exitY=0;exitDx=0;exitDy=0;" edge="1" parent="1" source="8YJrBbGB5DTJLXK0ga0t-34">
          <mxGeometry width="50" height="50" relative="1" as="geometry">
            <mxPoint x="860" y="310" as="sourcePoint" />
            <mxPoint x="860" y="270" as="targetPoint" />
          </mxGeometry>
        </mxCell>
        <mxCell id="8YJrBbGB5DTJLXK0ga0t-17" value="LSTM" style="rounded=0;whiteSpace=wrap;html=1;fillColor=#6a00ff;fontColor=#ffffff;strokeColor=#3700CC;" vertex="1" parent="1">
          <mxGeometry x="810" y="210" width="100" height="60" as="geometry" />
        </mxCell>
        <mxCell id="8YJrBbGB5DTJLXK0ga0t-18" value="Linear layer" style="rounded=0;whiteSpace=wrap;html=1;fillColor=#60a917;fontColor=#ffffff;strokeColor=#2D7600;" vertex="1" parent="1">
          <mxGeometry x="810" y="90" width="100" height="60" as="geometry" />
        </mxCell>
        <mxCell id="8YJrBbGB5DTJLXK0ga0t-19" value="" style="endArrow=classic;html=1;rounded=0;exitX=0.5;exitY=0;exitDx=0;exitDy=0;entryX=0.5;entryY=1;entryDx=0;entryDy=0;" edge="1" parent="1" source="8YJrBbGB5DTJLXK0ga0t-17" target="8YJrBbGB5DTJLXK0ga0t-18">
          <mxGeometry width="50" height="50" relative="1" as="geometry">
            <mxPoint x="910" y="370" as="sourcePoint" />
            <mxPoint x="960" y="320" as="targetPoint" />
          </mxGeometry>
        </mxCell>
        <mxCell id="8YJrBbGB5DTJLXK0ga0t-20" value="" style="endArrow=classic;html=1;rounded=0;exitX=0.5;exitY=0;exitDx=0;exitDy=0;entryX=0.5;entryY=1;entryDx=0;entryDy=0;" edge="1" parent="1" source="8YJrBbGB5DTJLXK0ga0t-18" target="8YJrBbGB5DTJLXK0ga0t-21">
          <mxGeometry width="50" height="50" relative="1" as="geometry">
            <mxPoint x="859.5" y="50" as="sourcePoint" />
            <mxPoint x="860" y="40" as="targetPoint" />
          </mxGeometry>
        </mxCell>
        <mxCell id="8YJrBbGB5DTJLXK0ga0t-21" value="Man" style="rounded=0;whiteSpace=wrap;html=1;fillColor=#6d8764;fontColor=#ffffff;strokeColor=#3A5431;" vertex="1" parent="1">
          <mxGeometry x="810" y="-10" width="100" height="40" as="geometry" />
        </mxCell>
        <mxCell id="8YJrBbGB5DTJLXK0ga0t-22" value="" style="endArrow=classic;html=1;rounded=0;exitX=0.5;exitY=0;exitDx=0;exitDy=0;" edge="1" parent="1" source="8YJrBbGB5DTJLXK0ga0t-36">
          <mxGeometry width="50" height="50" relative="1" as="geometry">
            <mxPoint x="1020" y="360" as="sourcePoint" />
            <mxPoint x="1020" y="270" as="targetPoint" />
          </mxGeometry>
        </mxCell>
        <mxCell id="8YJrBbGB5DTJLXK0ga0t-23" value="LSTM" style="rounded=0;whiteSpace=wrap;html=1;fillColor=#6a00ff;fontColor=#ffffff;strokeColor=#3700CC;" vertex="1" parent="1">
          <mxGeometry x="970" y="210" width="100" height="60" as="geometry" />
        </mxCell>
        <mxCell id="8YJrBbGB5DTJLXK0ga0t-24" value="Linear layer" style="rounded=0;whiteSpace=wrap;html=1;fillColor=#60a917;fontColor=#ffffff;strokeColor=#2D7600;" vertex="1" parent="1">
          <mxGeometry x="970" y="90" width="100" height="60" as="geometry" />
        </mxCell>
        <mxCell id="8YJrBbGB5DTJLXK0ga0t-25" value="" style="endArrow=classic;html=1;rounded=0;exitX=0.5;exitY=0;exitDx=0;exitDy=0;entryX=0.5;entryY=1;entryDx=0;entryDy=0;" edge="1" parent="1" source="8YJrBbGB5DTJLXK0ga0t-23" target="8YJrBbGB5DTJLXK0ga0t-24">
          <mxGeometry width="50" height="50" relative="1" as="geometry">
            <mxPoint x="1070" y="370" as="sourcePoint" />
            <mxPoint x="1120" y="320" as="targetPoint" />
          </mxGeometry>
        </mxCell>
        <mxCell id="8YJrBbGB5DTJLXK0ga0t-26" value="" style="endArrow=classic;html=1;rounded=0;exitX=0.5;exitY=0;exitDx=0;exitDy=0;entryX=0.5;entryY=1;entryDx=0;entryDy=0;" edge="1" parent="1" source="8YJrBbGB5DTJLXK0ga0t-24" target="8YJrBbGB5DTJLXK0ga0t-27">
          <mxGeometry width="50" height="50" relative="1" as="geometry">
            <mxPoint x="1019.5" y="50" as="sourcePoint" />
            <mxPoint x="1020" y="40" as="targetPoint" />
          </mxGeometry>
        </mxCell>
        <mxCell id="8YJrBbGB5DTJLXK0ga0t-27" value="is" style="rounded=0;whiteSpace=wrap;html=1;fillColor=#647687;fontColor=#ffffff;strokeColor=#314354;" vertex="1" parent="1">
          <mxGeometry x="970" y="-10" width="100" height="40" as="geometry" />
        </mxCell>
        <mxCell id="8YJrBbGB5DTJLXK0ga0t-28" value="" style="endArrow=classic;html=1;rounded=0;exitX=0.5;exitY=0;exitDx=0;exitDy=0;" edge="1" parent="1" source="8YJrBbGB5DTJLXK0ga0t-37">
          <mxGeometry width="50" height="50" relative="1" as="geometry">
            <mxPoint x="1160" y="360" as="sourcePoint" />
            <mxPoint x="1160" y="270" as="targetPoint" />
          </mxGeometry>
        </mxCell>
        <mxCell id="8YJrBbGB5DTJLXK0ga0t-29" value="LSTM" style="rounded=0;whiteSpace=wrap;html=1;fillColor=#6a00ff;fontColor=#ffffff;strokeColor=#3700CC;" vertex="1" parent="1">
          <mxGeometry x="1110" y="210" width="100" height="60" as="geometry" />
        </mxCell>
        <mxCell id="8YJrBbGB5DTJLXK0ga0t-30" value="Linear layer" style="rounded=0;whiteSpace=wrap;html=1;fillColor=#60a917;fontColor=#ffffff;strokeColor=#2D7600;" vertex="1" parent="1">
          <mxGeometry x="1110" y="90" width="100" height="60" as="geometry" />
        </mxCell>
        <mxCell id="8YJrBbGB5DTJLXK0ga0t-31" value="" style="endArrow=classic;html=1;rounded=0;exitX=0.5;exitY=0;exitDx=0;exitDy=0;entryX=0.5;entryY=1;entryDx=0;entryDy=0;" edge="1" parent="1" source="8YJrBbGB5DTJLXK0ga0t-29" target="8YJrBbGB5DTJLXK0ga0t-30">
          <mxGeometry width="50" height="50" relative="1" as="geometry">
            <mxPoint x="1210" y="370" as="sourcePoint" />
            <mxPoint x="1260" y="320" as="targetPoint" />
          </mxGeometry>
        </mxCell>
        <mxCell id="8YJrBbGB5DTJLXK0ga0t-32" value="" style="endArrow=classic;html=1;rounded=0;exitX=0.5;exitY=0;exitDx=0;exitDy=0;entryX=0.5;entryY=1;entryDx=0;entryDy=0;" edge="1" parent="1" source="8YJrBbGB5DTJLXK0ga0t-30" target="8YJrBbGB5DTJLXK0ga0t-33">
          <mxGeometry width="50" height="50" relative="1" as="geometry">
            <mxPoint x="1159.5" y="50" as="sourcePoint" />
            <mxPoint x="1160" y="40" as="targetPoint" />
          </mxGeometry>
        </mxCell>
        <mxCell id="8YJrBbGB5DTJLXK0ga0t-33" value="standing" style="rounded=0;whiteSpace=wrap;html=1;fillColor=#e3c800;fontColor=#000000;strokeColor=#B09500;" vertex="1" parent="1">
          <mxGeometry x="1110" y="-10" width="100" height="40" as="geometry" />
        </mxCell>
        <mxCell id="8YJrBbGB5DTJLXK0ga0t-34" value="embedding layer" style="rounded=0;whiteSpace=wrap;html=1;fillColor=#0050ef;strokeColor=#001DBC;fontColor=#ffffff;" vertex="1" parent="1">
          <mxGeometry x="810" y="315" width="100" height="40" as="geometry" />
        </mxCell>
        <mxCell id="8YJrBbGB5DTJLXK0ga0t-35" value="&amp;lt;start&amp;gt; (predicted word)" style="rounded=0;whiteSpace=wrap;html=1;fillColor=#1ba1e2;fontColor=#ffffff;strokeColor=#006EAF;" vertex="1" parent="1">
          <mxGeometry x="810" y="390" width="100" height="40" as="geometry" />
        </mxCell>
        <mxCell id="8YJrBbGB5DTJLXK0ga0t-36" value="embedding layer" style="rounded=0;whiteSpace=wrap;html=1;fillColor=#0050ef;strokeColor=#001DBC;fontColor=#ffffff;" vertex="1" parent="1">
          <mxGeometry x="970" y="320" width="100" height="40" as="geometry" />
        </mxCell>
        <mxCell id="8YJrBbGB5DTJLXK0ga0t-37" value="embedding layer" style="rounded=0;whiteSpace=wrap;html=1;fillColor=#0050ef;strokeColor=#001DBC;fontColor=#ffffff;" vertex="1" parent="1">
          <mxGeometry x="1110" y="320" width="100" height="40" as="geometry" />
        </mxCell>
        <mxCell id="8YJrBbGB5DTJLXK0ga0t-38" value="Man" style="rounded=0;whiteSpace=wrap;html=1;fillColor=#6d8764;fontColor=#ffffff;strokeColor=#3A5431;" vertex="1" parent="1">
          <mxGeometry x="970" y="390" width="100" height="40" as="geometry" />
        </mxCell>
        <mxCell id="8YJrBbGB5DTJLXK0ga0t-39" value="is" style="rounded=0;whiteSpace=wrap;html=1;fillColor=#647687;fontColor=#ffffff;strokeColor=#314354;" vertex="1" parent="1">
          <mxGeometry x="1110" y="390" width="100" height="40" as="geometry" />
        </mxCell>
        <mxCell id="8YJrBbGB5DTJLXK0ga0t-41" value="output" style="text;html=1;align=center;verticalAlign=middle;resizable=0;points=[];autosize=1;strokeColor=none;fillColor=none;fontStyle=1" vertex="1" parent="1">
          <mxGeometry x="550" y="-50" width="60" height="30" as="geometry" />
        </mxCell>
        <mxCell id="8YJrBbGB5DTJLXK0ga0t-43" value="" style="endArrow=classic;html=1;rounded=0;entryX=0.5;entryY=1;entryDx=0;entryDy=0;exitX=0.5;exitY=0;exitDx=0;exitDy=0;" edge="1" parent="1" source="8YJrBbGB5DTJLXK0ga0t-35" target="8YJrBbGB5DTJLXK0ga0t-34">
          <mxGeometry width="50" height="50" relative="1" as="geometry">
            <mxPoint x="720" y="570" as="sourcePoint" />
            <mxPoint x="770" y="520" as="targetPoint" />
          </mxGeometry>
        </mxCell>
        <mxCell id="8YJrBbGB5DTJLXK0ga0t-44" value="" style="endArrow=classic;html=1;rounded=0;entryX=0.5;entryY=1;entryDx=0;entryDy=0;exitX=0.5;exitY=0;exitDx=0;exitDy=0;" edge="1" parent="1" source="8YJrBbGB5DTJLXK0ga0t-38" target="8YJrBbGB5DTJLXK0ga0t-36">
          <mxGeometry width="50" height="50" relative="1" as="geometry">
            <mxPoint x="1060" y="530" as="sourcePoint" />
            <mxPoint x="1110" y="480" as="targetPoint" />
          </mxGeometry>
        </mxCell>
        <mxCell id="8YJrBbGB5DTJLXK0ga0t-45" value="" style="endArrow=classic;html=1;rounded=0;entryX=0.5;entryY=1;entryDx=0;entryDy=0;exitX=0.5;exitY=0;exitDx=0;exitDy=0;" edge="1" parent="1" source="8YJrBbGB5DTJLXK0ga0t-39" target="8YJrBbGB5DTJLXK0ga0t-37">
          <mxGeometry width="50" height="50" relative="1" as="geometry">
            <mxPoint x="1080" y="530" as="sourcePoint" />
            <mxPoint x="1130" y="480" as="targetPoint" />
          </mxGeometry>
        </mxCell>
        <mxCell id="8YJrBbGB5DTJLXK0ga0t-51" value="&lt;span style=&quot;color: rgb(240, 240, 240); font-family: Helvetica; font-size: 12px; font-style: normal; font-variant-ligatures: normal; font-variant-caps: normal; font-weight: 700; letter-spacing: normal; orphans: 2; text-align: center; text-indent: 0px; text-transform: none; widows: 2; word-spacing: 0px; -webkit-text-stroke-width: 0px; background-color: rgb(27, 29, 30); text-decoration-thickness: initial; text-decoration-style: initial; text-decoration-color: initial; float: none; display: inline !important;&quot;&gt;encoder&lt;/span&gt;" style="text;whiteSpace=wrap;html=1;" vertex="1" parent="1">
          <mxGeometry x="440" y="415" width="60" height="40" as="geometry" />
        </mxCell>
        <mxCell id="8YJrBbGB5DTJLXK0ga0t-53" value="&lt;span style=&quot;color: rgb(240, 240, 240); font-family: Helvetica; font-size: 12px; font-style: normal; font-variant-ligatures: normal; font-variant-caps: normal; font-weight: 700; letter-spacing: normal; orphans: 2; text-align: center; text-indent: 0px; text-transform: none; widows: 2; word-spacing: 0px; -webkit-text-stroke-width: 0px; background-color: rgb(27, 29, 30); text-decoration-thickness: initial; text-decoration-style: initial; text-decoration-color: initial; float: none; display: inline !important;&quot;&gt;decoder&lt;/span&gt;" style="text;whiteSpace=wrap;html=1;" vertex="1" parent="1">
          <mxGeometry x="1245" y="155" width="60" height="40" as="geometry" />
        </mxCell>
        <mxCell id="8YJrBbGB5DTJLXK0ga0t-55" value="&lt;span style=&quot;color: rgb(240, 240, 240); font-family: Helvetica; font-size: 12px; font-style: normal; font-variant-ligatures: normal; font-variant-caps: normal; font-weight: 700; letter-spacing: normal; orphans: 2; text-align: center; text-indent: 0px; text-transform: none; widows: 2; word-spacing: 0px; -webkit-text-stroke-width: 0px; background-color: rgb(27, 29, 30); text-decoration-thickness: initial; text-decoration-style: initial; text-decoration-color: initial; float: none; display: inline !important;&quot;&gt;decoder&lt;/span&gt;" style="text;whiteSpace=wrap;html=1;" vertex="1" parent="1">
          <mxGeometry x="1240" y="320" width="60" height="40" as="geometry" />
        </mxCell>
        <mxCell id="8YJrBbGB5DTJLXK0ga0t-56" value="hidden_size" style="text;html=1;align=center;verticalAlign=middle;resizable=0;points=[];autosize=1;strokeColor=none;fillColor=none;" vertex="1" parent="1">
          <mxGeometry x="850" y="165" width="90" height="30" as="geometry" />
        </mxCell>
        <mxCell id="8YJrBbGB5DTJLXK0ga0t-57" value="hidden_size" style="text;html=1;align=center;verticalAlign=middle;resizable=0;points=[];autosize=1;strokeColor=none;fillColor=none;" vertex="1" parent="1">
          <mxGeometry x="1010" y="165" width="90" height="30" as="geometry" />
        </mxCell>
        <mxCell id="8YJrBbGB5DTJLXK0ga0t-58" value="hidden_size" style="text;html=1;align=center;verticalAlign=middle;resizable=0;points=[];autosize=1;strokeColor=none;fillColor=none;" vertex="1" parent="1">
          <mxGeometry x="1150" y="165" width="90" height="30" as="geometry" />
        </mxCell>
        <mxCell id="8YJrBbGB5DTJLXK0ga0t-59" value="embed_size" style="text;html=1;align=center;verticalAlign=middle;resizable=0;points=[];autosize=1;strokeColor=none;fillColor=none;" vertex="1" parent="1">
          <mxGeometry x="770" y="40" width="90" height="30" as="geometry" />
        </mxCell>
        <mxCell id="8YJrBbGB5DTJLXK0ga0t-60" value="embed_size" style="text;html=1;align=center;verticalAlign=middle;resizable=0;points=[];autosize=1;strokeColor=none;fillColor=none;" vertex="1" parent="1">
          <mxGeometry x="930" y="40" width="90" height="30" as="geometry" />
        </mxCell>
        <mxCell id="8YJrBbGB5DTJLXK0ga0t-61" value="embed_size" style="text;html=1;align=center;verticalAlign=middle;resizable=0;points=[];autosize=1;strokeColor=none;fillColor=none;" vertex="1" parent="1">
          <mxGeometry x="1155" y="40" width="90" height="30" as="geometry" />
        </mxCell>
        <mxCell id="8YJrBbGB5DTJLXK0ga0t-62" value="embed_size" style="text;html=1;align=center;verticalAlign=middle;resizable=0;points=[];autosize=1;strokeColor=none;fillColor=none;" vertex="1" parent="1">
          <mxGeometry x="810" y="285" width="90" height="30" as="geometry" />
        </mxCell>
        <mxCell id="8YJrBbGB5DTJLXK0ga0t-63" value="embed_size" style="text;html=1;align=center;verticalAlign=middle;resizable=0;points=[];autosize=1;strokeColor=none;fillColor=none;" vertex="1" parent="1">
          <mxGeometry x="965" y="285" width="90" height="30" as="geometry" />
        </mxCell>
        <mxCell id="8YJrBbGB5DTJLXK0ga0t-64" value="embed_size" style="text;html=1;align=center;verticalAlign=middle;resizable=0;points=[];autosize=1;strokeColor=none;fillColor=none;" vertex="1" parent="1">
          <mxGeometry x="1170" y="285" width="90" height="30" as="geometry" />
        </mxCell>
      </root>
    </mxGraphModel>
  </diagram>
</mxfile>
